<svg width="1122" height="366" viewBox="0 0 1122 366" fill="none" xmlns="http://www.w3.org/2000/svg">
<g clip-path="url(#clip0_5138_44248)">
<path d="M243.567 -184.653L720.916 -356.837L-445.452 -314.177L-57.4184 422.286L243.567 -184.653Z" fill="white" fill-opacity="0.1"/>
<path d="M640.027 -67.3854L888.742 -211.306C896.91 -216.033 892.851 -228.558 883.464 -227.595L261.112 -163.791C258.134 -163.485 255.518 -161.68 254.177 -159.004L19.3173 309.552C15.3329 317.501 24.3616 325.64 31.8564 320.855L640.027 -67.3854Z" fill="white" fill-opacity="0.1"/>
<path d="M643.453 150.516C644.732 150.218 645.929 149.636 646.953 148.813L1062.83 -185.302C1070.17 -191.2 1064.3 -202.943 1055.18 -200.612L770.808 -127.954C769.921 -127.728 769.074 -127.363 768.3 -126.874L189.85 238.527C181.508 243.797 186.899 256.693 196.51 254.458L643.453 150.516Z" fill="white" fill-opacity="0.1"/>
<path d="M1264.79 -56.0006C1265.29 -56.1769 1265.77 -56.3976 1266.22 -56.6599L1571.01 -231.921C1579.95 -237.063 1574.2 -250.74 1564.27 -247.938L968.333 -79.7787C967.216 -79.4634 966.172 -78.929 965.263 -78.2067L713.296 122.038C705.551 128.192 712.357 140.457 721.677 137.142L1264.79 -56.0006Z" fill="white" fill-opacity="0.1"/>
</g>
<defs>
<clipPath id="clip0_5138_44248">
<rect width="1122" height="366" fill="white" transform="matrix(-1 0 0 -1 1122 366)"/>
</clipPath>
</defs>
</svg>
