<svg width="48" height="48" viewBox="0 0 48 48" fill="none" xmlns="http://www.w3.org/2000/svg">
<rect width="48" height="48" rx="24" fill="#F85C3A"/>
<g clip-path="url(#clip0_6310_78)">
<path d="M16.9219 30.375H22.0778C22.1145 30.2726 22.1425 30.1682 22.1957 30.0701L23.8745 27.2727L32.6052 18.542C32.7801 18.3672 32.9792 18.2286 33.1875 18.1074V12.7031C33.1875 12.3145 32.873 12 32.4844 12H29.6719C29.2832 12 28.9688 12.3145 28.9688 12.7031C28.9688 13.0911 28.6536 13.4062 28.2656 13.4062C27.8777 13.4062 27.5625 13.0911 27.5625 12.7031C27.5625 12.3145 27.248 12 26.8594 12H24.0469C23.6582 12 23.3438 12.3145 23.3438 12.7031C23.3438 13.0911 23.0286 13.4062 22.6406 13.4062C22.2527 13.4062 21.9375 13.0911 21.9375 12.7031C21.9375 12.3145 21.623 12 21.2344 12H18.3281C17.9395 12 17.625 12.3145 17.625 12.7031C17.625 13.0911 17.3098 13.4062 16.9219 13.4062C16.5339 13.4062 16.2188 13.0911 16.2188 12.7031C16.2188 12.3145 15.9043 12 15.5156 12H12.7031C12.3145 12 12 12.3145 12 12.7031V35.2969C12 35.6855 12.3145 36 12.7031 36H32.4844C32.873 36 33.1875 35.6855 33.1875 35.2969V25.9152L27.8523 31.2505L25.1098 32.8984C23.9702 33.5194 22.7849 33.0728 22.2341 32.1486C22.1643 32.0315 22.1202 31.906 22.075 31.7812H16.9219C16.5332 31.7812 16.2188 31.4668 16.2188 31.0781C16.2188 30.6895 16.5332 30.375 16.9219 30.375ZM16.9219 17.7188H28.2656C28.6543 17.7188 28.9688 18.0332 28.9688 18.4219C28.9688 18.8105 28.6543 19.125 28.2656 19.125H16.9219C16.5332 19.125 16.2188 18.8105 16.2188 18.4219C16.2188 18.0332 16.5332 17.7188 16.9219 17.7188ZM16.9219 21.9375H26.8594C27.248 21.9375 27.5625 22.252 27.5625 22.6406C27.5625 23.0293 27.248 23.3438 26.8594 23.3438H16.9219C16.5332 23.3438 16.2188 23.0293 16.2188 22.6406C16.2188 22.252 16.5332 21.9375 16.9219 21.9375ZM16.9219 26.1562H22.6406C23.0293 26.1562 23.3438 26.4707 23.3438 26.8594C23.3438 27.248 23.0293 27.5625 22.6406 27.5625H16.9219C16.5332 27.5625 16.2188 27.248 16.2188 26.8594C16.2188 26.4707 16.5332 26.1562 16.9219 26.1562Z" fill="white"/>
<path d="M35.5886 19.5363C35.0448 18.9926 34.1526 18.983 33.5993 19.5363L32.5088 20.6269L34.4982 22.616L35.5886 21.5255C36.1372 20.9769 36.1372 20.085 35.5886 19.5363Z" fill="white"/>
<path d="M31.5163 21.6217L26.3632 26.7755L28.353 28.765L33.5061 23.6112L31.5163 21.6217Z" fill="white"/>
<path d="M25.3676 27.7681L24.991 28.1448L23.4322 30.7397C23.0992 31.3546 23.7704 32.0258 24.3853 31.6928L26.9802 30.1339L27.3569 29.7573L25.3676 27.7681Z" fill="white"/>
</g>
<defs>
<clipPath id="clip0_6310_78">
<rect width="24" height="24" fill="white" transform="translate(12 12)"/>
</clipPath>
</defs>
</svg>
