<svg width="49" height="48" viewBox="0 0 49 48" fill="none" xmlns="http://www.w3.org/2000/svg">
<rect x="0.666748" width="48" height="48" rx="24" fill="#F85C3A"/>
<g clip-path="url(#clip0_6310_103)">
<path d="M24.6667 12C19.7496 12 15.7605 15.9891 15.7605 20.9062C15.7605 24.3469 20.1199 31.1859 22.7402 34.9875C23.4761 36.0516 24.9339 36.3234 25.998 35.5875C26.2324 35.4234 26.4339 35.2219 26.598 34.9875C29.2183 31.1859 33.573 24.3469 33.573 20.9062C33.573 15.9891 29.5886 12 24.6667 12ZM24.6667 25.4531C22.2058 25.4531 20.2136 23.4609 20.2136 21C20.2136 18.5391 22.2058 16.5469 24.6667 16.5469C27.1277 16.5469 29.1199 18.5391 29.1199 21C29.1199 23.4609 27.1277 25.4531 24.6667 25.4531Z" fill="white"/>
</g>
<defs>
<clipPath id="clip0_6310_103">
<rect width="24" height="24" fill="white" transform="translate(12.6667 12)"/>
</clipPath>
</defs>
</svg>
