<svg width="49" height="48" viewBox="0 0 49 48" fill="none" xmlns="http://www.w3.org/2000/svg">
<rect x="0.333374" width="48" height="48" rx="24" fill="#F85C3A"/>
<g clip-path="url(#clip0_6310_94)">
<path d="M27.4728 20.7163C35.2811 20.7163 34.7042 20.7146 34.8244 20.7193C34.7538 20.4496 34.6134 20.1945 34.4024 19.9835L32.2617 17.8427C31.7991 17.3801 31.0889 17.2456 30.4942 17.5082C30.1749 17.6493 29.7945 17.5781 29.5475 17.3311C29.3005 17.0842 29.2294 16.7037 29.3704 16.3845C29.633 15.79 29.4986 15.0797 29.0359 14.617L26.8952 12.4762C26.2606 11.8418 25.2283 11.8417 24.5937 12.4762L21.9154 15.1545C22.6702 15.9099 26.72 19.9629 27.4728 20.7163Z" fill="white"/>
<path d="M20.9171 16.1528L16.3536 20.7163H25.4762C25.4597 20.6997 25.1105 20.3502 20.9171 16.1528Z" fill="white"/>
<path d="M35.3201 28.2692C35.9262 28.0345 36.3334 27.4372 36.3334 26.7829V23.7554C36.3334 22.8581 35.6033 22.1281 34.706 22.1281H31.3922V35.9996H34.706C35.6033 35.9996 36.3334 35.2696 36.3334 34.3722V31.3448C36.3334 30.6905 35.9262 30.0932 35.3202 29.8585C34.9946 29.7324 34.7759 29.413 34.7759 29.0638C34.7759 28.7146 34.9946 28.3953 35.3201 28.2692Z" fill="white"/>
<path d="M12.3334 23.7554V26.7829C12.3334 27.4372 12.7406 28.0345 13.3466 28.2691C13.6722 28.3953 13.8908 28.7146 13.8908 29.0638C13.8908 29.413 13.6721 29.7324 13.3466 29.8585C12.7405 30.0932 12.3334 30.6905 12.3334 31.3448V34.3722C12.3334 35.2696 13.0634 35.9996 13.9608 35.9996H29.9804V22.1281H13.9608C13.0634 22.1281 12.3334 22.8581 12.3334 23.7554ZM17.2746 25.4114H27.8628V26.8232H17.2746V25.4114ZM17.2746 28.2349H27.8628V29.6467H17.2746V28.2349ZM17.2746 31.0585H27.8628V32.4702H17.2746V31.0585Z" fill="white"/>
</g>
<defs>
<clipPath id="clip0_6310_94">
<rect width="24" height="24" fill="white" transform="translate(12.3334 12)"/>
</clipPath>
</defs>
</svg>
